# xmcd
#
# Track frame offsets: 
#        150
#        20226
#        38741
#        59810
#        74677
#        93406
#        112677
#        134761
#        155969
#        181083
#        199446
#        218271
#        237587
#        237890
#        238192
#        238493
#        238794
#        239096
#        239398
#        239699
#        240001
#        240302
#        240604
#        240905
#        241207
#        241509
#        241811
#        242113
#        242416
#        242716
#        243019
#        243321
#        243622
#
# Disc length: 3500 seconds
#
# Revision: 0
# Processed by: cddbd v1.5.2PL0 Copyright (c) Steve Scherf et al.
# Submitted via: ExactAudioCopy v0.99pb3
#
DISCID=ca0daa21
DTITLE=Kenna - Make Sure They See My Face
DYEAR=2008
DGENRE=Hip-Hop
TTITLE0=Daylight
TTITLE1=Out Of Control State Of Emotion
TTITLE2=Loose Wires - Bunk Radio
TTITLE3=Say Goodbye To Love
TTITLE4=Sun Red Sky Blue
TTITLE5=Baptized In Blacklight
TTITLE6=Static
TTITLE7=Phantom Always
TTITLE8=Face The Gun - Good Luck
TTITLE9=Better Wise Up
TTITLE10=Be Still
TTITLE11=Wide Awake
TTITLE12=Untitled 1
TTITLE13=Untitled 2
TTITLE14=Untitled 3
TTITLE15=Untitled 4
TTITLE16=Untitled 5
TTITLE17=Untitled 6
TTITLE18=Untitled 7
TTITLE19=Untitled 8
TTITLE20=Untitled 9
TTITLE21=Untitled 10
TTITLE22=Untitled 11
TTITLE23=Untitled 12
TTITLE24=Untitled 13
TTITLE25=Untitled 14
TTITLE26=Untitled 15
TTITLE27=Untitled 16
TTITLE28=Untitled 17
TTITLE29=Untitled 18
TTITLE30=Untitled 19
TTITLE31=Untitled 20
TTITLE32=Rockaway Life
EXTD=
EXTT0=
EXTT1=
EXTT2=
EXTT3=
EXTT4=
EXTT5=
EXTT6=
EXTT7=
EXTT8=
EXTT9=
EXTT10=
EXTT11=
EXTT12=
EXTT13=
EXTT14=
EXTT15=
EXTT16=
EXTT17=
EXTT18=
EXTT19=
EXTT20=
EXTT21=
EXTT22=
EXTT23=
EXTT24=
EXTT25=
EXTT26=
EXTT27=
EXTT28=
EXTT29=
EXTT30=
EXTT31=
EXTT32=
PLAYORDER=
